PathFileType	4	(X/Y/Z)	E:\Qualisys_Data\Carbon_Farble_Plate\Data\Amateur_Runner\S14\T2\S14T2V24_c3d.trc
DataRate	CameraRate	NumFrames	NumMarkers	Units	OrigDataRate	OrigDataStartFrame	OrigNumFrames
200.000000	200.000000	4	39	mm	200.000000	118	315
Frame#	Time	LSHO			RSHO			LICST			RICST			LASIS			LHEEL			RASIS			LTROC			RTROC			SACR			LTH1			LSK4			LTH2			LTH3			RHM5			LSK2			LTH4			RTH1			LTOE			RTH2			RTH3			RTH4			LLEP			RLEP			LSK1			LSK3			RSK1			LHM5			RSK2			LFT1			RSK3			RSK4			LLME			RLME			RTOE			RHEEL			RFT1			RFT2			LFT2			
		X1	Y1	Z1	X2	Y2	Z2	X3	Y3	Z3	X4	Y4	Z4	X5	Y5	Z5	X6	Y6	Z6	X7	Y7	Z7	X8	Y8	Z8	X9	Y9	Z9	X10	Y10	Z10	X11	Y11	Z11	X12	Y12	Z12	X13	Y13	Z13	X14	Y14	Z14	X15	Y15	Z15	X16	Y16	Z16	X17	Y17	Z17	X18	Y18	Z18	X19	Y19	Z19	X20	Y20	Z20	X21	Y21	Z21	X22	Y22	Z22	X23	Y23	Z23	X24	Y24	Z24	X25	Y25	Z25	X26	Y26	Z26	X27	Y27	Z27	X28	Y28	Z28	X29	Y29	Z29	X30	Y30	Z30	X31	Y31	Z31	X32	Y32	Z32	X33	Y33	Z33	X34	Y34	Z34	X35	Y35	Z35	X36	Y36	Z36	X37	Y37	Z37	X38	Y38	Z38	X39	Y39	Z39	

119	0.59	-711.3172607421875	1361.90869140625	-530.911865234375	-670.8411865234375	1382.817260742188	-223.2186889648438	-777.7174072265625	940.113525390625	-479.671630859375	-723.5125122070312	932.1241455078124	-203.0823059082031	-732.8248901367188	890.307861328125	-461.6025085449219	-1062.708251953125	111.3152542114258	-312.1592407226562	-702.8515014648438	888.74755859375	-226.9356994628906	-872.0849609375	831.0811767578125	-488.4110717773438	-834.8935546875	810.9982299804688	-160.6451416015625	-888.2448120117188	949.5130615234376	-329.6801452636719	-778.8176879882812	597.43798828125	-483.5779113769531	-929.8243408203124	281.9242553710938	-412.893310546875	-851.8283081054688	591.7942504882812	-458.5464172363281	-758.030517578125	503.8320617675781	-454.5267639160156	-1045.0224609375	268.5665588378906	-173.6415710449219	-876.0043334960938	360.1681518554688	-439.5289001464844	-834.3043823242188	497.9164428710938	-433.9193725585938	-629.545166015625	642.10400390625	-167.9611968994141	-816.2665405273438	64.93046569824219	-358.8618774414062	-701.9790649414062	617.0355834960938	-149.4433746337891	-596.4117431640625	548.2401123046875	-188.2279357910156	-673.38916015625	520.44091796875	-163.8399658203125	-794.4495849609375	426.9331359863281	-441.9713439941406	-635.365966796875	469.05859375	-167.2026062011719	-805.89453125	318.55810546875	-428.76513671875	-863.0633544921875	237.2482757568359	-403.7205810546875	-725.7559204101562	406.0960693359375	-173.0738983154297	-888.88037109375	60.48752593994141	-420.5163269042969	-749.3567504882812	486.3404846191406	-165.8651733398438	-1058.587036132812	78.29217529296875	-294.2535705566406	-826.1282348632812	385.4757385253906	-190.715087890625	-840.4119873046875	462.649169921875	-181.3399810791016	-998.2784423828124	124.1255416870117	-379.4823303222656	-998.9996948242188	399.5717468261719	-204.4757537841797	-1026.59130859375	190.5591278076172	-234.8166351318359	-1032.664184570312	450.7007446289062	-261.6305847167969	-1063.68115234375	431.9202270507812	-286.3988342285156	-1058.15478515625	448.0497131347656	-232.2451782226562	-1069.46484375	83.72101593017578	-348.4285583496094
120	0.595	-686.6557006835938	1365.509521484375	-530.0306396484375	-652.1632080078125	1385.877075195312	-222.2159271240234	-754.25439453125	942.3336791992188	-480.0497741699219	-701.2422485351562	934.2366333007812	-202.8117828369141	-710.3243408203125	891.63134765625	-461.4660339355469	-1062.063232421875	113.8226470947266	-311.8186645507812	-681.091064453125	891.9046020507812	-226.9868316650391	-851.4666748046875	833.4403076171875	-488.1937866210938	-812.70263671875	814.3462524414062	-161.1977996826172	-865.5259399414062	952.2941284179688	-330.8828735351562	-764.848876953125	598.0136108398438	-483.2816162109375	-925.6915893554688	285.0042419433594	-412.7308654785156	-838.1072998046875	594.5724487304688	-459.0294799804688	-748.062744140625	503.4757690429688	-453.919189453125	-1002.96044921875	260.0455322265625	-171.86962890625	-870.51416015625	362.4455871582031	-439.4159851074219	-824.492431640625	500.3455810546875	-434.1848449707031	-603.35302734375	650.3007202148438	-168.3582458496094	-816.1181030273438	64.88987731933594	-358.8941040039062	-675.0219116210938	622.70556640625	-150.347412109375	-566.9905395507812	557.5134887695312	-188.8964233398438	-642.7814331054688	527.4517822265625	-164.7805633544922	-788.0731811523438	426.9661865234375	-440.6122741699219	-602.9108276367188	476.6594543457031	-169.3573608398438	-800.7893676757812	319.1719970703125	-428.1669921875	-859.6622924804688	238.7791290283203	-403.8718872070312	-690.530029296875	410.23095703125	-174.5033264160156	-888.7571411132812	60.75745391845703	-420.3579711914062	-717.1097412109375	490.2630615234375	-167.0380401611328	-1057.492309570312	81.36929321289062	-293.9548034667969	-790.4136962890625	386.5025024414062	-190.0886383056641	-807.4143676757812	462.8274536132812	-181.7449340820312	-996.7593383789062	127.7552642822266	-379.6717834472656	-963.787353515625	393.0376586914062	-203.389404296875	-980.6574096679688	182.5289611816406	-233.4382629394531	-1000.566955566406	442.3076782226562	-259.4564819335938	-1030.425048828125	421.8158569335938	-285.05810546875	-1025.756103515625	437.9742736816406	-231.0856475830078	-1067.16943359375	86.4437255859375	-348.3796691894531
121	0.6	-661.6900634765625	1369.327758789062	-528.9115600585938	-633.0836791992188	1389.178588867188	-221.2431945800781	-730.9107666015625	944.6318969726562	-479.9559936523438	-680.520751953125	936.8408203125	-202.9708251953125	-687.327880859375	893.279541015625	-461.4958190917969	-1060.623901367188	117.8816146850586	-311.7662048339844	-659.2317504882812	894.2318725585938	-227.1454620361328	-830.597412109375	836.006591796875	-487.3840637207031	-790.3284301757812	817.7826538085938	-161.4184265136719	-842.5838012695312	954.8482666015624	-331.7215576171875	-751.4210815429688	598.615966796875	-482.86962890625	-921.4204711914062	288.6666564941406	-412.4632568359375	-824.747802734375	598.1354370117188	-458.9650268554688	-738.115234375	503.4867858886719	-453.17822265625	-960.9882202148438	250.9844207763672	-170.1854400634766	-865.0097045898438	365.2450866699219	-438.6172180175781	-814.9781494140625	503.8305358886719	-433.9980773925781	-577.3668823242188	658.2242431640625	-168.6796112060547	-815.8684692382812	64.72691345214844	-358.559326171875	-648.3726196289062	628.2405395507812	-151.3273468017578	-538.3373413085938	566.9581298828125	-189.877197265625	-612.8955688476562	533.8631591796875	-166.4159545898438	-781.2854614257812	428.8655395507812	-440.4767456054688	-570.5831298828125	485.3319702148438	-170.7465057373047	-796.4820556640625	321.0152282714844	-428.0804443359375	-855.9617919921875	241.617919921875	-404.1828002929688	-655.3080444335938	414.3151245117188	-176.9624176025391	-887.5690307617188	61.2818717956543	-420.2657165527344	-685.4776000976562	494.2238159179688	-168.4745788574219	-1056.271362304688	85.47332763671875	-294.2928161621094	-754.6390380859375	387.0142517089844	-190.3423614501953	-774.78125	462.78515625	-182.2527465820312	-994.6583251953124	131.8360595703125	-379.9122924804688	-928.7755126953124	385.9399719238281	-202.3687744140625	-934.4251708984376	174.7363128662109	-231.3800964355469	-968.4472045898438	432.8291015625	-258.6484985351562	-997.1080322265624	410.8005981445312	-284.4189453125	-993.1497802734376	427.2605285644531	-230.1286468505859	-1065.591918945312	90.4798583984375	-348.5538330078125
122	0.605	-636.4450073242188	1373.447387695312	-527.8174438476562	-614.346923828125	1392.942993164062	-220.5337219238281	-707.5531616210938	946.7340087890624	-480.1628723144531	-658.365234375	940.002685546875	-203.3818664550781	-664.4572143554688	895.2078857421875	-461.6923828125	-1058.2646484375	124.2690048217773	-312.2221374511719	-636.0628051757812	897.6483154296875	-226.9849700927734	-808.84326171875	838.736083984375	-487.3391418457031	-767.6357421875	821.6597900390625	-161.7755737304688	-820.0182495117188	957.9378662109376	-332.8762817382812	-737.3816528320312	600.2469482421875	-482.0832824707031	-916.8890991210938	292.9899291992188	-412.2686767578125	-811.1761474609375	602.7052001953125	-459.045166015625	-727.7516479492188	504.5900573730469	-452.4849243164062	-917.7814331054688	242.3750610351562	-168.5051727294922	-860.2013549804688	369.8418884277344	-438.2276916503906	-804.9846801757812	507.7356567382812	-433.7865905761719	-552.0514526367188	665.98486328125	-169.2743988037109	-815.7476196289062	64.72468566894531	-358.4598999023438	-622.0785522460938	633.9398193359375	-152.4525451660156	-509.5690002441406	576.3762817382812	-190.8688049316406	-583.0498046875	541.0364990234375	-167.7334747314453	-774.4701538085938	430.8084716796875	-439.9248352050781	-539.6773071289062	494.0567321777344	-171.8975830078125	-791.19580078125	323.749755859375	-428.2364196777344	-852.1502685546875	244.9204406738281	-404.5090026855469	-621.4793701171875	419.4422302246094	-177.6968078613281	-887.3184204101562	61.50062942504883	-419.9932250976562	-654.3171997070312	497.813720703125	-170.0183563232422	-1054.423217773438	91.57916259765624	-294.8603515625	-719.461181640625	387.8089904785156	-189.6506500244141	-742.5823364257812	462.6799926757812	-182.7494506835938	-991.9165649414062	135.8704223632812	-379.9605712890625	-893.47021484375	378.6164855957031	-201.9213409423828	-887.5128173828125	167.3068542480469	-229.0414276123047	-936.3047485351562	421.9778137207031	-258.0231018066406	-963.5385131835938	399.3165893554688	-283.4587707519531	-960.5086059570312	416.2305297851562	-229.2792053222656	-1063.182739257812	96.83023071289062	-349.069580078125
